<?xml version="1.0" standalone="no"?>
<!DOCTYPE svg PUBLIC "-//W3C//DTD SVG 20010904//EN"
 "http://www.w3.org/TR/2001/REC-SVG-20010904/DTD/svg10.dtd">
<svg version="1.0" xmlns="http://www.w3.org/2000/svg"
 width="200.000000pt" height="63.000000pt" viewBox="0 0 200.000000 63.000000"
 preserveAspectRatio="xMidYMid meet">

<g transform="translate(0.000000,63.000000) scale(0.100000,-0.100000)"
fill="#000000" stroke="none">
<path d="M0 315 l0 -315 1000 0 1000 0 0 315 0 315 -1000 0 -1000 0 0 -315z
m272 185 c10 0 25 -11 34 -25 16 -25 17 -25 174 -25 124 0 160 -3 169 -14 13
-15 5 -136 -9 -136 -3 0 -3 26 1 58 12 80 8 82 -167 82 -79 0 -145 -3 -147 -7
-3 -5 2 -46 11 -92 l15 -84 71 6 c46 4 66 3 56 -3 -8 -5 -39 -10 -67 -10 -49
0 -69 -12 -40 -23 7 -3 6 -6 -5 -6 -20 -1 -22 5 -44 129 -24 138 -27 144 -69
136 -26 -5 -35 -3 -35 7 0 20 12 29 24 17 5 -5 18 -10 28 -10z m638 -127 c18
-43 41 -98 51 -122 24 -54 24 -61 0 -61 -13 0 -23 11 -31 35 -11 34 -13 35
-61 35 -46 0 -49 -2 -63 -35 -10 -24 -21 -35 -36 -35 -20 0 -20 1 -4 38 8 20
29 70 45 111 37 91 47 111 58 111 5 0 23 -35 41 -77z m140 -53 c0 -123 -1
-130 -20 -130 -19 0 -20 7 -20 130 0 123 1 130 20 130 19 0 20 -7 20 -130z
m630 106 c0 -14 -28 -58 -71 -112 l-71 -89 71 -3 c54 -2 71 -6 71 -17 0 -12
-18 -15 -95 -15 -119 0 -120 4 -25 122 39 48 70 90 70 93 0 3 -29 5 -64 5 -63
0 -84 9 -71 30 3 6 46 10 96 10 87 0 89 -1 89 -24z m-465 -72 c18 -7 45 -54
45 -79 0 -12 -13 -15 -65 -15 -36 0 -65 -4 -65 -8 0 -26 55 -43 76 -22 5 5 15
6 23 0 26 -15 -6 -40 -52 -40 -57 0 -87 30 -87 86 0 34 5 47 26 63 26 21 67
27 99 15z m210 -19 c14 -13 25 -36 25 -50 0 -24 -2 -25 -66 -25 -46 0 -64 -4
-62 -12 8 -24 36 -33 68 -21 34 13 49 1 30 -22 -20 -25 -87 -19 -115 10 -54
53 -16 145 60 145 25 0 44 -8 60 -25z m435 5 c16 -16 20 -33 20 -84 l0 -63
-57 -1 c-72 -1 -93 10 -93 48 0 36 31 60 78 60 22 0 32 4 30 13 -6 16 -46 21
-62 8 -10 -8 -16 -7 -25 3 -29 35 75 50 109 16z m-1256 -67 c-16 -12 -16 -14
5 -36 19 -21 20 -25 6 -37 -12 -10 -18 -8 -34 11 -15 19 -21 21 -34 11 -13
-11 -18 -4 -36 50 -12 34 -21 65 -21 70 0 4 29 -7 65 -24 58 -29 64 -34 49
-45z m-126 -60 c-15 -2 -42 -2 -60 0 -18 2 -6 4 27 4 33 0 48 -2 33 -4z m-69
-47 c9 -11 8 -18 -5 -31 -15 -15 -19 -15 -32 -1 -17 17 -10 46 11 46 8 0 20
-6 26 -14z m178 -2 c3 -8 -2 -23 -11 -32 -15 -15 -17 -15 -33 0 -13 14 -14 20
-3 32 16 20 39 20 47 0z"/>
<path d="M848 335 l-17 -45 35 0 c32 0 35 2 28 23 -11 37 -23 67 -27 67 -1 0
-10 -20 -19 -45z"/>
<path d="M1143 323 c-7 -2 -13 -11 -13 -19 0 -10 13 -14 45 -14 46 0 54 7 33
28 -12 12 -43 15 -65 5z"/>
<path d="M1332 318 c-21 -21 -13 -28 33 -28 25 0 45 4 45 8 0 15 -24 32 -45
32 -12 0 -26 -5 -33 -12z"/>
<path d="M1777 263 c-4 -3 -7 -15 -7 -25 0 -16 6 -19 33 -16 24 2 33 8 35 26
3 18 -1 22 -26 22 -16 0 -32 -3 -35 -7z"/>
<path d="M518 280 c13 -40 18 -47 30 -38 10 9 18 5 37 -18 17 -20 24 -24 25
-13 0 9 -9 24 -20 34 -19 17 -19 20 -4 28 15 8 11 13 -27 33 -24 13 -47 23
-51 24 -3 0 1 -22 10 -50z"/>
<path d="M375 160 c-8 -13 4 -32 16 -25 12 8 12 35 0 35 -6 0 -13 -4 -16 -10z"/>
<path d="M545 160 c-3 -6 1 -13 10 -16 19 -8 30 0 20 15 -8 14 -22 14 -30 1z"/>
</g>
</svg>
